HIERARCHY
ROOT root
{
	OFFSET 0.000000 0.000000 0.000000
	CHANNELS 6 Xposition Yposition Zposition Zrotation Yrotation Xrotation
	JOINT lhip
	{
		OFFSET 0.058581 -0.082280 -0.017664
		CHANNELS 3 Zrotation Yrotation Xrotation
		JOINT lknee
		{
			OFFSET 0.043451 -0.386469 0.008037
			CHANNELS 3 Zrotation Yrotation Xrotation
			JOINT lankle
			{
				OFFSET -0.014790 -0.426874 -0.037428
				CHANNELS 3 Zrotation Yrotation Xrotation
				JOINT ltoe
				{
					OFFSET 0.041054 -0.060286 0.122042
					CHANNELS 3 Zrotation Yrotation Xrotation
					End Site
					{
						OFFSET 0.000000 0.000000 0.000000
					}
				}
			}
		}
	}
	JOINT rhip
	{
		OFFSET -0.060310 -0.090513 -0.013543
		CHANNELS 3 Zrotation Yrotation Xrotation
		JOINT rknee
		{
			OFFSET -0.043257 -0.383688 -0.004843
			CHANNELS 3 Zrotation Yrotation Xrotation
			JOINT rankle
			{
				OFFSET 0.019056 -0.420046 -0.034562
				CHANNELS 3 Zrotation Yrotation Xrotation
				JOINT rtoe
				{
					OFFSET -0.034840 -0.062106 0.130323
					CHANNELS 3 Zrotation Yrotation Xrotation
					End Site
					{
						OFFSET 0.000000 0.000000 0.000000
					}
				}
			}
		}
	}
	JOINT lowerback
	{
		OFFSET 0.004439 0.124404 -0.038385
		CHANNELS 3 Zrotation Yrotation Xrotation
		JOINT upperback
		{
			OFFSET 0.004488 0.137956 0.026820
			CHANNELS 3 Zrotation Yrotation Xrotation
			JOINT chest
			{
				OFFSET -0.002265 0.056032 0.002855
				CHANNELS 3 Zrotation Yrotation Xrotation
				JOINT lowerneck
				{
					OFFSET -0.013390 0.211636 -0.033468
					CHANNELS 3 Zrotation Yrotation Xrotation
					JOINT upperneck
					{
						OFFSET 0.010113 0.088937 0.050410
						CHANNELS 3 Zrotation Yrotation Xrotation
						End Site
						{
							OFFSET 0.000000 0.000000 0.000000
						}
					}
				}
				JOINT lclavicle
				{
					OFFSET 0.071702 0.114000 -0.018898
					CHANNELS 3 Zrotation Yrotation Xrotation
					JOINT lshoulder
					{
						OFFSET 0.122921 0.045205 -0.019046
						CHANNELS 3 Zrotation Yrotation Xrotation
						JOINT lelbow
						{
							OFFSET 0.255332 -0.015649 -0.022946
							CHANNELS 3 Zrotation Yrotation Xrotation
							JOINT lwrist
							{
								OFFSET 0.265709 0.012698 -0.007375
								CHANNELS 3 Zrotation Yrotation Xrotation
								End Site
								{
									OFFSET 0.000000 0.000000 0.000000
								}
							}
						}
					}
				}
				JOINT rclavicle
				{
					OFFSET -0.082954 0.112472 -0.023707
					CHANNELS 3 Zrotation Yrotation Xrotation
					JOINT rshoulder
					{
						OFFSET -0.113228 0.046853 -0.008472
						CHANNELS 3 Zrotation Yrotation Xrotation
						JOINT relbow
						{
							OFFSET -0.260127 -0.014369 -0.031269
							CHANNELS 3 Zrotation Yrotation Xrotation
							JOINT rwrist
							{
								OFFSET -0.269108 0.006794 -0.006027
								CHANNELS 3 Zrotation Yrotation Xrotation
								End Site
								{
									OFFSET 0.000000 0.000000 0.000000
								}
							}
						}
					}
				}
			}
		}
	}
}
MOTION
Frames: 8
Frame Time: 0.033333
0.344698 0.163128 1.010468 78.361595 -0.103410 88.742348 6.950644 7.831580 1.573612 -2.874576 1.013209 5.384098 -2.698579 10.122540 -4.928536 0.000000 -0.000000 0.000000 -7.238878 -4.705940 -4.532005 2.408726 3.316601 8.884434 9.920921 -3.182245 -5.796310 0.000000 -0.000000 0.000000 -1.428367 1.077979 2.205596 3.270866 -3.587020 15.965858 -2.190796 1.559539 3.036028 -7.900559 -10.484033 35.790218 5.348167 -17.103669 5.480124 -5.292639 12.860586 -12.752673 -7.808910 -23.601813 -8.395746 74.243325 -63.524978 -59.514380 9.834228 -24.740893 4.604374 5.577921 -10.416431 -8.312121 7.092205 7.246594 -17.935323 -100.726748 58.370640 -90.566644 -30.889585 33.390251 2.622011 
0.344474 0.163083 1.010648 78.266281 -0.018993 88.738385 7.050225 7.781904 1.584739 -2.832611 1.067302 5.380854 -2.730848 10.127063 -4.882511 0.000000 -0.000000 0.000000 -7.102354 -4.653575 -4.596680 2.361354 3.342054 8.937602 10.015916 -3.172290 -5.776825 0.000000 -0.000000 0.000000 -1.495378 1.000549 2.298420 3.310532 -3.551297 15.793328 -2.051885 1.621469 3.353718 -7.566902 -11.023323 36.196771 5.614134 -17.964551 4.878500 -4.224736 13.118079 -13.128136 -6.921795 -23.914989 -9.471469 79.660342 -63.534203 -64.005910 10.311779 -25.101435 5.162957 4.443768 -10.219461 -8.591821 6.625645 7.757363 -18.312363 -103.777042 58.162754 -92.206848 -30.253387 33.323144 3.038746 
0.344500 0.162875 1.010763 78.194689 0.063601 88.730783 7.201867 7.814099 1.642100 -2.832179 1.195819 5.325264 -2.859594 10.034626 -4.868076 0.000000 -0.000000 0.000000 -6.934425 -4.586915 -4.696431 2.294027 3.337027 9.084272 10.022438 -3.181178 -5.855105 0.000000 -0.000000 0.000000 -1.504161 0.960584 2.421016 3.336235 -3.488552 15.580784 -1.922193 1.617364 3.542254 -6.964114 -11.358129 36.581023 5.678243 -18.485128 4.499702 -3.323948 13.212930 -13.378062 -6.230160 -24.169243 -10.452113 84.703063 -63.230256 -67.757072 10.197737 -25.540877 6.146128 3.370471 -10.005540 -8.771188 6.370502 8.283546 -18.441282 -106.424436 57.710901 -93.080165 -30.177965 33.029893 2.389997 
0.344700 0.162598 1.010806 78.101486 0.083811 88.791235 7.290558 7.866023 1.677189 -2.842253 1.374373 5.215476 -3.017154 9.894991 -4.865016 0.000000 -0.000000 0.000000 -6.850271 -4.507426 -4.934483 2.218868 3.188378 9.371832 10.013000 -3.058376 -5.939311 0.000000 -0.000000 0.000000 -1.566157 0.946469 2.383894 3.385166 -3.427209 15.539039 -1.831735 1.604115 3.608159 -6.497693 -11.451323 36.871777 6.105328 -18.932101 4.126064 -2.573686 13.328701 -13.685030 -5.584885 -24.401052 -11.294845 89.379171 -62.981068 -71.637094 10.678484 -26.182782 6.821833 2.519703 -9.722689 -8.860228 5.816569 8.874866 -18.888174 -108.262491 57.635617 -94.549610 -31.039238 33.882366 2.258520 
0.345035 0.162143 1.010980 78.097276 0.091015 88.839886 7.336608 7.879954 1.715474 -2.836598 1.426274 5.099717 -3.100178 9.806977 -4.809742 0.000000 -0.000000 0.000000 -6.756149 -4.461796 -5.096132 2.122055 3.128540 9.628656 10.020857 -3.030481 -6.044291 0.000000 -0.000000 0.000000 -1.597279 0.909295 2.483070 3.405893 -3.321704 15.272410 -1.733507 1.610529 3.785164 -5.948344 -11.706652 36.888225 6.069697 -19.014251 4.109767 -1.974530 13.533208 -14.134125 -5.189490 -24.996229 -11.973101 93.633622 -62.586522 -74.999361 11.123211 -26.563105 7.197346 1.717925 -9.745763 -9.149690 5.511163 9.495712 -19.151124 -110.314994 57.472128 -95.665049 -31.377091 33.967663 2.046342 
0.345418 0.161633 1.011096 78.238688 0.096606 88.918695 7.342256 7.797804 1.595831 -2.757702 1.483765 5.145935 -3.206964 9.695740 -4.787521 0.000000 -0.000000 0.000000 -6.693177 -4.461654 -5.217881 2.060637 2.977407 9.797530 10.033185 -2.992157 -6.164702 0.000000 -0.000000 0.000000 -1.527689 0.867569 2.505603 3.381609 -3.333899 15.046710 -1.637459 1.678964 3.980637 -5.396955 -11.808805 37.063593 6.363836 -19.165653 3.799703 -1.408568 13.506114 -14.484215 -4.943118 -25.448193 -12.603372 97.627941 -61.835674 -78.319934 11.394321 -27.262236 7.633709 0.787398 -9.627830 -9.354355 5.286363 9.716296 -19.489657 -112.369947 57.036882 -97.013673 -31.552052 34.055602 1.835442 
0.346231 0.160754 1.011316 78.352466 0.060368 89.000816 7.349677 7.790634 1.592000 -2.741243 1.444973 5.041307 -3.311321 9.605071 -4.735954 0.000000 -0.000000 0.000000 -6.680037 -4.470938 -5.255266 2.022792 2.866205 9.862579 10.090463 -2.937445 -6.238572 0.000000 -0.000000 0.000000 -1.480619 0.862013 2.485107 3.334708 -3.272683 14.870618 -1.585496 1.743362 4.001157 -4.869532 -11.852032 37.286613 6.647849 -18.979933 3.748883 -0.772876 13.527867 -14.659670 -4.750463 -26.121681 -13.360434 101.307579 -61.082043 -81.228879 11.342102 -27.547360 8.008407 -0.062412 -9.648367 -9.432847 5.024735 10.094365 -20.019991 -114.371428 56.632639 -98.392419 -31.578580 33.942190 1.675396 
0.347139 0.159698 1.011505 78.438080 0.027112 89.119433 7.365916 7.751265 1.589435 -2.742708 1.443171 4.889378 -3.337504 9.569895 -4.642140 0.000000 -0.000000 0.000000 -6.722159 -4.493451 -5.312322 2.088512 2.673330 9.905792 10.144945 -2.849405 -6.296489 0.000000 -0.000000 0.000000 -1.406446 0.888513 2.392918 3.272807 -3.182583 14.600250 -1.540492 1.797441 4.209361 -4.155404 -11.703685 37.358957 7.039547 -18.457002 3.579117 -0.089845 13.612103 -15.007433 -4.677893 -26.791025 -13.907129 104.554947 -60.299680 -83.805797 12.490737 -27.757409 7.943512 -0.992772 -9.765421 -9.738619 4.884372 10.534745 -20.559978 -116.350823 56.360171 -99.789275 -31.579240 33.956402 1.520830 
